<?xml version="1.0" encoding="utf-8"?>
<svg version="1.1" xmlns:xlink="http://www.w3.org/1999/xlink" width="97px" height="35px" xmlns="http://www.w3.org/2000/svg">
  <defs>
    <mask fill="white" id="clip182">
      <path d="M 0 30.625  L 0 4.375  C 0 1.925  1.52428571428575 0  3.46428571428571 0  L 42.8311688311693 0  L 93.5357142857143 0  C 95.4757142857143 0  97 1.925  97 4.375  L 97 30.625  C 97 33.075  95.4757142857143 35  93.5357142857143 35  L 3.46428571428571 35  C 1.52428571428575 35  0 33.075  0 30.625  Z " fill-rule="evenodd" />
    </mask>
  </defs>
  <g transform="matrix(1 0 0 1 -1000 -12 )">
    <path d="M 0 30.625  L 0 4.375  C 0 1.925  1.52428571428575 0  3.46428571428571 0  L 42.8311688311693 0  L 93.5357142857143 0  C 95.4757142857143 0  97 1.925  97 4.375  L 97 30.625  C 97 33.075  95.4757142857143 35  93.5357142857143 35  L 3.46428571428571 35  C 1.52428571428575 35  0 33.075  0 30.625  Z " fill-rule="nonzero" fill="#f2f2f2" stroke="none" transform="matrix(1 0 0 1 1000 12 )" />
    <path d="M 0 30.625  L 0 4.375  C 0 1.925  1.52428571428575 0  3.46428571428571 0  L 42.8311688311693 0  L 93.5357142857143 0  C 95.4757142857143 0  97 1.925  97 4.375  L 97 30.625  C 97 33.075  95.4757142857143 35  93.5357142857143 35  L 3.46428571428571 35  C 1.52428571428575 35  0 33.075  0 30.625  Z " stroke-width="2" stroke="#f2f2f2" fill="none" transform="matrix(1 0 0 1 1000 12 )" mask="url(#clip182)" />
  </g>
</svg>