<?xml version="1.0" encoding="utf-8"?>
<svg version="1.1" xmlns:xlink="http://www.w3.org/1999/xlink" width="57px" height="35px" xmlns="http://www.w3.org/2000/svg">
  <defs>
    <mask fill="white" id="clip183">
      <path d="M 0 30.625  L 0 4.375  C 0 1.925  0.895714285714304 0  2.03571428571429 0  L 25.1688311688314 0  L 54.9642857142857 0  C 56.1042857142857 0  57 1.925  57 4.375  L 57 30.625  C 57 33.075  56.1042857142857 35  54.9642857142857 35  L 2.03571428571429 35  C 0.895714285714304 35  0 33.075  0 30.625  Z " fill-rule="evenodd" />
    </mask>
  </defs>
  <g>
    <path d="M 0 30.625  L 0 4.375  C 0 1.925  0.895714285714304 0  2.03571428571429 0  L 25.1688311688314 0  L 54.9642857142857 0  C 56.1042857142857 0  57 1.925  57 4.375  L 57 30.625  C 57 33.075  56.1042857142857 35  54.9642857142857 35  L 2.03571428571429 35  C 0.895714285714304 35  0 33.075  0 30.625  Z " fill-rule="nonzero" fill="#f2f2f2" stroke="none" />
    <path d="M 0 30.625  L 0 4.375  C 0 1.925  0.895714285714304 0  2.03571428571429 0  L 25.1688311688314 0  L 54.9642857142857 0  C 56.1042857142857 0  57 1.925  57 4.375  L 57 30.625  C 57 33.075  56.1042857142857 35  54.9642857142857 35  L 2.03571428571429 35  C 0.895714285714304 35  0 33.075  0 30.625  Z " stroke-width="2" stroke="#f2f2f2" fill="none" mask="url(#clip183)" />
  </g>
</svg>