<?xml version="1.0" encoding="utf-8"?>
<svg version="1.1" xmlns:xlink="http://www.w3.org/1999/xlink" width="170px" height="26px" xmlns="http://www.w3.org/2000/svg">
  <defs>
    <mask fill="white" id="clip185">
      <path d="M 0 20.8  L 0 5.2  C 0 2.28800000000005  1.29861111111114 0  2.95138888888889 0  L 89.5294784580517 0  L 167.048611111111 0  C 168.701388888889 0  170 2.28800000000005  170 5.2  L 170 20.8  C 170 23.712  168.701388888889 26  167.048611111111 26  L 89.5294784580517 26  L 2.95138888888889 26  C 1.29861111111114 26  0 23.712  0 20.8  Z " fill-rule="evenodd" />
    </mask>
  </defs>
  <g transform="matrix(1 0 0 1 -546 -150 )">
    <path d="M 0 20.8  L 0 5.2  C 0 2.28800000000005  1.29861111111114 0  2.95138888888889 0  L 89.5294784580517 0  L 167.048611111111 0  C 168.701388888889 0  170 2.28800000000005  170 5.2  L 170 20.8  C 170 23.712  168.701388888889 26  167.048611111111 26  L 89.5294784580517 26  L 2.95138888888889 26  C 1.29861111111114 26  0 23.712  0 20.8  Z " fill-rule="nonzero" fill="#81d3f8" stroke="none" transform="matrix(1 0 0 1 546 150 )" />
    <path d="M 0 20.8  L 0 5.2  C 0 2.28800000000005  1.29861111111114 0  2.95138888888889 0  L 89.5294784580517 0  L 167.048611111111 0  C 168.701388888889 0  170 2.28800000000005  170 5.2  L 170 20.8  C 170 23.712  168.701388888889 26  167.048611111111 26  L 89.5294784580517 26  L 2.95138888888889 26  C 1.29861111111114 26  0 23.712  0 20.8  Z " stroke-width="2" stroke="#797979" fill="none" transform="matrix(1 0 0 1 546 150 )" mask="url(#clip185)" />
  </g>
</svg>