<?xml version="1.0" encoding="utf-8"?>
<svg version="1.1" xmlns:xlink="http://www.w3.org/1999/xlink" width="117px" height="26px" xmlns="http://www.w3.org/2000/svg">
  <defs>
    <mask fill="white" id="clip198">
      <path d="M 0 20.8  L 0 5.2  C 0 2.28800000000005  0.893750000000018 0  2.03125 0  L 61.6173469387767 0  L 114.96875 0  C 116.10625 0  117 2.28800000000005  117 5.2  L 117 20.8  C 117 23.712  116.10625 26  114.96875 26  L 61.6173469387767 26  L 2.03125 26  C 0.893750000000018 26  0 23.712  0 20.8  Z " fill-rule="evenodd" />
    </mask>
  </defs>
  <g transform="matrix(1 0 0 1 -338 -136 )">
    <path d="M 0 20.8  L 0 5.2  C 0 2.28800000000005  0.893750000000018 0  2.03125 0  L 61.6173469387767 0  L 114.96875 0  C 116.10625 0  117 2.28800000000005  117 5.2  L 117 20.8  C 117 23.712  116.10625 26  114.96875 26  L 61.6173469387767 26  L 2.03125 26  C 0.893750000000018 26  0 23.712  0 20.8  Z " fill-rule="nonzero" fill="#7f7f7f" stroke="none" transform="matrix(1 0 0 1 338 136 )" />
    <path d="M 0 20.8  L 0 5.2  C 0 2.28800000000005  0.893750000000018 0  2.03125 0  L 61.6173469387767 0  L 114.96875 0  C 116.10625 0  117 2.28800000000005  117 5.2  L 117 20.8  C 117 23.712  116.10625 26  114.96875 26  L 61.6173469387767 26  L 2.03125 26  C 0.893750000000018 26  0 23.712  0 20.8  Z " stroke-width="2" stroke="#797979" fill="none" transform="matrix(1 0 0 1 338 136 )" mask="url(#clip198)" />
  </g>
</svg>