<?xml version="1.0" encoding="utf-8"?>
<svg version="1.1" xmlns:xlink="http://www.w3.org/1999/xlink" width="149px" height="26px" xmlns="http://www.w3.org/2000/svg">
  <defs>
    <mask fill="white" id="clip199">
      <path d="M 0 20.8  L 0 5.2  C 0 2.28800000000005  1.13819444444447 0  2.58680555555556 0  L 78.4699546485276 0  L 146.413194444444 0  C 147.861805555556 0  149 2.28800000000005  149 5.2  L 149 20.8  C 149 23.712  147.861805555556 26  146.413194444444 26  L 78.4699546485276 26  L 2.58680555555556 26  C 1.13819444444447 26  0 23.712  0 20.8  Z " fill-rule="evenodd" />
    </mask>
  </defs>
  <g transform="matrix(1 0 0 1 -472 -136 )">
    <path d="M 0 20.8  L 0 5.2  C 0 2.28800000000005  1.13819444444447 0  2.58680555555556 0  L 78.4699546485276 0  L 146.413194444444 0  C 147.861805555556 0  149 2.28800000000005  149 5.2  L 149 20.8  C 149 23.712  147.861805555556 26  146.413194444444 26  L 78.4699546485276 26  L 2.58680555555556 26  C 1.13819444444447 26  0 23.712  0 20.8  Z " fill-rule="nonzero" fill="#aaaaaa" stroke="none" fill-opacity="0.803921568627451" transform="matrix(1 0 0 1 472 136 )" />
    <path d="M 0 20.8  L 0 5.2  C 0 2.28800000000005  1.13819444444447 0  2.58680555555556 0  L 78.4699546485276 0  L 146.413194444444 0  C 147.861805555556 0  149 2.28800000000005  149 5.2  L 149 20.8  C 149 23.712  147.861805555556 26  146.413194444444 26  L 78.4699546485276 26  L 2.58680555555556 26  C 1.13819444444447 26  0 23.712  0 20.8  Z " stroke-width="2" stroke="#797979" fill="none" transform="matrix(1 0 0 1 472 136 )" mask="url(#clip199)" />
  </g>
</svg>