<?xml version="1.0" encoding="utf-8"?>
<svg version="1.1" xmlns:xlink="http://www.w3.org/1999/xlink" width="111px" height="40px" xmlns="http://www.w3.org/2000/svg">
  <defs>
    <mask fill="white" id="clip12">
      <path d="M 0 35  L 0 5  C 0 2.2  1.74428571428575 0  3.96428571428571 0  L 49.0129870129875 0  L 107.035714285714 0  C 109.255714285714 0  111 2.2  111 5  L 111 35  C 111 37.8  109.255714285714 40  107.035714285714 40  L 3.96428571428571 40  C 1.74428571428575 40  0 37.8  0 35  Z " fill-rule="evenodd" />
    </mask>
  </defs>
  <g transform="matrix(1 0 0 1 -1383 -15 )">
    <path d="M 0 35  L 0 5  C 0 2.2  1.74428571428575 0  3.96428571428571 0  L 49.0129870129875 0  L 107.035714285714 0  C 109.255714285714 0  111 2.2  111 5  L 111 35  C 111 37.8  109.255714285714 40  107.035714285714 40  L 3.96428571428571 40  C 1.74428571428575 40  0 37.8  0 35  Z " fill-rule="nonzero" fill="#f2f2f2" stroke="none" transform="matrix(1 0 0 1 1383 15 )" />
    <path d="M 0 35  L 0 5  C 0 2.2  1.74428571428575 0  3.96428571428571 0  L 49.0129870129875 0  L 107.035714285714 0  C 109.255714285714 0  111 2.2  111 5  L 111 35  C 111 37.8  109.255714285714 40  107.035714285714 40  L 3.96428571428571 40  C 1.74428571428575 40  0 37.8  0 35  Z " stroke-width="2" stroke="#f2f2f2" fill="none" transform="matrix(1 0 0 1 1383 15 )" mask="url(#clip12)" />
  </g>
</svg>