<?xml version="1.0" encoding="utf-8"?>
<svg version="1.1" xmlns:xlink="http://www.w3.org/1999/xlink" width="12px" height="12px" viewBox="246 161.5  12 12" xmlns="http://www.w3.org/2000/svg">
  <path d="M 252 161.5  C 255.36 161.5  258 164.14  258 167.5  C 258 170.86  255.36 173.5  252 173.5  C 248.64 173.5  246 170.86  246 167.5  C 246 164.14  248.64 161.5  252 161.5  Z " fill-rule="nonzero" fill="#ffffff" stroke="none" />
  <path d="M 252 162  C 255.08 162  257.5 164.42  257.5 167.5  C 257.5 170.58  255.08 173  252 173  C 248.92 173  246.5 170.58  246.5 167.5  C 246.5 164.42  248.92 162  252 162  Z " stroke-width="1" stroke="#797979" fill="none" />
  <path d="M 252 170.5  C 250.32 170.5  249 169.18  249 167.5  C 249 165.82  250.32 164.5  252 164.5  C 253.68 164.5  255 165.82  255 167.5  C 255 169.18  253.68 170.5  252 170.5  " fill-rule="nonzero" fill="#797979" stroke="none" />
</svg>