<?xml version="1.0" encoding="utf-8"?>
<svg version="1.1" xmlns:xlink="http://www.w3.org/1999/xlink" width="104px" height="18px" xmlns="http://www.w3.org/2000/svg">
  <defs>
    <mask fill="white" id="clip187">
      <path d="M 0 18  L 0 5  C 0 2.19999999999999  2.20000000000005 0  5 0  L 99 0  C 101.8 0  104 2.19999999999999  104 5  L 104 18  L 74.7999999999993 18  L 73.2000000000007 18  L 0 18  Z " fill-rule="evenodd" />
    </mask>
  </defs>
  <g transform="matrix(1 0 0 1 -713 -374 )">
    <path d="M 0 18  L 0 5  C 0 2.19999999999999  2.20000000000005 0  5 0  L 99 0  C 101.8 0  104 2.19999999999999  104 5  L 104 18  L 74.7999999999993 18  L 73.2000000000007 18  L 0 18  Z " fill-rule="nonzero" fill="#f2f2f2" stroke="none" transform="matrix(1 0 0 1 713 374 )" />
    <path d="M 0 18  L 0 5  C 0 2.19999999999999  2.20000000000005 0  5 0  L 99 0  C 101.8 0  104 2.19999999999999  104 5  L 104 18  L 74.7999999999993 18  L 73.2000000000007 18  L 0 18  Z " stroke-width="2" stroke="#797979" fill="none" transform="matrix(1 0 0 1 713 374 )" mask="url(#clip187)" />
  </g>
</svg>