<?xml version="1.0" encoding="utf-8"?>
<svg version="1.1" xmlns:xlink="http://www.w3.org/1999/xlink" width="12px" height="12px" viewBox="116 161.5  12 12" xmlns="http://www.w3.org/2000/svg">
  <path d="M 122 161.5  C 125.36 161.5  128 164.14  128 167.5  C 128 170.86  125.36 173.5  122 173.5  C 118.64 173.5  116 170.86  116 167.5  C 116 164.14  118.64 161.5  122 161.5  Z " fill-rule="nonzero" fill="#ffffff" stroke="none" />
  <path d="M 122 162  C 125.08 162  127.5 164.42  127.5 167.5  C 127.5 170.58  125.08 173  122 173  C 118.92 173  116.5 170.58  116.5 167.5  C 116.5 164.42  118.92 162  122 162  Z " stroke-width="1" stroke="#797979" fill="none" />
  <path d="M 122 170.5  C 120.32 170.5  119 169.18  119 167.5  C 119 165.82  120.32 164.5  122 164.5  C 123.68 164.5  125 165.82  125 167.5  C 125 169.18  123.68 170.5  122 170.5  " fill-rule="nonzero" fill="#797979" stroke="none" />
</svg>