<?xml version="1.0" encoding="utf-8"?>
<svg version="1.1" xmlns:xlink="http://www.w3.org/1999/xlink" width="22px" height="22px" xmlns="http://www.w3.org/2000/svg">
  <defs>
    <mask fill="white" id="clip192">
      <path d="M 0 11  C 0 10.8083435658838  0.00468522815538108 10.6179649212646  0.0139496686312555 10.4289700819771  C 0.302452185965166 4.54351083168712  5.03165643411614 0  11 0  C 17.16 0  22 4.83999999999998  22 11  C 22 17.16  17.16 22  11 22  C 4.84 22  0 17.16  0 11  Z " fill-rule="evenodd" />
    </mask>
  </defs>
  <g transform="matrix(1 0 0 1 -217 -285 )">
    <path d="M 0 11  C 0 10.8083435658838  0.00468522815538108 10.6179649212646  0.0139496686312555 10.4289700819771  C 0.302452185965166 4.54351083168712  5.03165643411614 0  11 0  C 17.16 0  22 4.83999999999998  22 11  C 22 17.16  17.16 22  11 22  C 4.84 22  0 17.16  0 11  Z " fill-rule="nonzero" fill="#d7d7d7" stroke="none" transform="matrix(1 0 0 1 217 285 )" />
    <path d="M 0 11  C 0 10.8083435658838  0.00468522815538108 10.6179649212646  0.0139496686312555 10.4289700819771  C 0.302452185965166 4.54351083168712  5.03165643411614 0  11 0  C 17.16 0  22 4.83999999999998  22 11  C 22 17.16  17.16 22  11 22  C 4.84 22  0 17.16  0 11  Z " stroke-width="2" stroke="#797979" fill="none" transform="matrix(1 0 0 1 217 285 )" mask="url(#clip192)" />
  </g>
</svg>