<?xml version="1.0" encoding="utf-8"?>
<svg version="1.1" xmlns:xlink="http://www.w3.org/1999/xlink" width="166px" height="20px" xmlns="http://www.w3.org/2000/svg">
  <defs>
    <mask fill="white" id="clip190">
      <path d="M 0 15  L 0 5  C 0 2.19999999999999  2.60857142857148 0  5.92857142857143 0  L 160.071428571429 0  C 163.391428571429 0  166 2.19999999999999  166 5  L 166 15  C 166 17.8  163.391428571429 20  160.071428571429 20  L 105.495327102803 20  L 5.92857142857143 20  C 2.60857142857148 20  0 17.8  0 15  Z " fill-rule="evenodd" />
    </mask>
  </defs>
  <g transform="matrix(1 0 0 1 -522 -155 )">
    <path d="M 0 15  L 0 5  C 0 2.19999999999999  2.60857142857148 0  5.92857142857143 0  L 160.071428571429 0  C 163.391428571429 0  166 2.19999999999999  166 5  L 166 15  C 166 17.8  163.391428571429 20  160.071428571429 20  L 105.495327102803 20  L 5.92857142857143 20  C 2.60857142857148 20  0 17.8  0 15  Z " fill-rule="nonzero" fill="#ffffff" stroke="none" transform="matrix(1 0 0 1 522 155 )" />
    <path d="M 0 15  L 0 5  C 0 2.19999999999999  2.60857142857148 0  5.92857142857143 0  L 160.071428571429 0  C 163.391428571429 0  166 2.19999999999999  166 5  L 166 15  C 166 17.8  163.391428571429 20  160.071428571429 20  L 105.495327102803 20  L 5.92857142857143 20  C 2.60857142857148 20  0 17.8  0 15  Z " stroke-width="2" stroke="#797979" fill="none" transform="matrix(1 0 0 1 522 155 )" mask="url(#clip190)" />
  </g>
</svg>